<?xml version="1.0" encoding="UTF-8"?>
<svg id="Layer_2" data-name="Layer 2" xmlns="http://www.w3.org/2000/svg" viewBox="0 0 595.89 522.94">
  <defs>
    <style>
      .cls-1 {
        fill: #bb953a;
      }

      .cls-2 {
        fill: #b89238;
      }

      .cls-3 {
        fill: #b58f38;
      }

      .cls-4 {
        fill: #ae9357;
      }

      .cls-5 {
        fill: #b4913c;
      }

      .cls-6 {
        fill: #b28e40;
      }

      .cls-7 {
        fill: #bc953c;
      }

      .cls-8 {
        fill: #b7933c;
      }

      .cls-9 {
        fill: #b0965b;
      }

      .cls-10 {
        fill: #b48f37;
      }

      .cls-11 {
        fill: #b8994e;
      }

      .cls-12 {
        fill: #b69139;
      }

      .cls-13 {
        fill: #ab9156;
      }

      .cls-14 {
        fill: #ba963f;
      }

      .cls-15 {
        fill: #b89236;
      }

      .cls-16 {
        fill: #ba9642;
      }
    </style>
  </defs>
  <g id="Layer_1-2" data-name="Layer 1">
    <g>
      <g>
        <path class="cls-11" d="M593.29,129.41c.49.21.95.17,1.52.2,0,0-6.31,11.07-6.31,11.07-22.15,66.86-50.75,133.07-75.93,198.91-10.26,26.74-18.42,53.75-29.78,79.73-5.26,10.16-17.37,4.46-15.23-6.4-4.85,7.77-16.72,4.48-14.97-4.47.85-6.79,25.7-73.17,28.57-81.44,5.2-16.27,29.36-86.12,35.35-103.57.78-2.28,1.6-3.53,3.78-4.03-8.74,27.8-22.45,62.81-30.21,90.78.9,4.56-1.99,8.23-3.6,12.2-2.15,5.29-2.48,11.61-6.81,16.17-.26.27-.12,1.86-.12,1.84-7.82,20.22-16.73,48.94-24.18,69.13-.56,1.55.66,4.07,2.11,4.01,4.46-.18,7.26-3.49,10.6-5.52,4.85-1.4,6.05,10.02,13.31,4.37,12.72-19.24,19.11-48.61,27.46-69.96,11.72-30.13,27.16-69.47,39.6-99.27,2.01-7.13,7.4-16.92,7.54-24.71-.08-10.83,9.61-18.85,15.4-35.76,3.53-10.75,11.29-32.54,15.35-43.11,1.49-4.02,3.55-7.94,6.58-10.19Z"/>
        <path class="cls-10" d="M494.13,168.71c-.15.35-1.43,1.57-.83,1.82,2.33.37,4.43-3.37,9.47.81,3.62,3,7.29,5.57,11.84,7.88.65,2.4.23,11.04,3.13,12.16l-.03,2.25c-2.3-.64-3.15.82-4.99,1.96l-21.05,13.01c-5.47-14.07-19.7-10.91-18.4-22.04,3.99-3.59,8.44-8.24,10.75-8.38.81-.05,2.77.32,3.02-.65l.59-2.34c.4-1.58,3.08-2.86,3.21-4.79.09-1.21,1.37-1.37,1.7-1.95.62.01,1.12.07,1.6.25Z"/>
        <path class="cls-14" d="M554.98,175.73l-11.85,24.37c-.99,4.43-2.42,8.65-5.46,11.54-3.45-.36-5-5.88-11.36-4.03-2.84.82-1.77,5.17-4.3,7.72-1.44,1.47-1.47-.89-1.64-1.9l10.51-26.89c-6.02,2.16-10.52,7.83-13.17,7.1l.03-2.25,13.9-10.49c3.01-.14,6.68,3.01,7.73,6.26,4.52-3.46,9.76-7.95,13.8-11.68l1.82.26Z"/>
        <path class="cls-6" d="M537.67,211.63c-1.53,9.12-10,26.27-12.95,35.4-1.09-2.98-4.26-4.35-6.37-7.43-.87-1.27-.98-3.78-3.27-4.13l5.19-16.06c-1.14-2.08-.69-3.98.09-5.99.17,1.01.2,3.37,1.65,1.9,2.53-2.55,1.47-6.9,4.3-7.72,6.36-1.85,7.91,3.67,11.36,4.03Z"/>
        <path class="cls-13" d="M594.81,129.61c-.57-.04-1.03,0-1.52-.2.66-4.28,1.38-8.62-4.48-8.03-1.5-.62-3.5-1.41-5.25-.76-.98-1.45-.43-3.17.1-5.41-1.86-12.01-10.62-3.43-15.93.44-24.5,15.44-51.66,34.02-73.59,53.06-.48-.18-.98-.24-1.6-.25,21.45-20.05,47.23-37.2,72.11-53.05,4.34-2.8,8.04-7.02,13.15-8.75,6.97-1.19,9.54,8.01,6.79,12.79,6.71-.85,14.15,3.22,10.23,10.16Z"/>
        <path class="cls-13" d="M490.83,170.4c-.14,1.93-2.81,3.21-3.21,4.79-1.71.25-3.06,1.31-3.61,2.99-17.88,12.68-35.79,32.1-55.7,44.05-9.37,6.21-22.57,17.55-25.87,14.6,0-.83.82-1.31,1.5-.97,23.95-15.06,46.72-32.53,68.08-50.8,3.13-1.95,15.36-14.23,18.81-14.65Z"/>
        <path class="cls-13" d="M517.7,193.62c1.09,1.74-20.22,12.78-21.12,13.84-11.35,5.61-36.18,23.79-46.44,31.65-17.9,13.18-34.63,26.92-51,41.99-9.2,7.58-15.3-1.54-14.53-10.64,3.43-.04,1.2,4.89,4.82,10.29,7.57,4.84,12.24-6.25,17.89-9.57,0,0,8.53-7.33,8.53-7.33,17.32-14.84,50.45-39.11,69.34-51.81,1.05-.72,2.65-.7,2.3-2.37,3.04,1.02,22.45-12.86,25.23-14.08,1.84-1.14,2.69-2.6,4.99-1.96Z"/>
        <path class="cls-14" d="M487.48,209.66c.35,1.67-1.25,1.65-2.3,2.37l-17.15,11.74c-1.63-1.47-1.73-3.81-1.52-6.94,9.9,1.81,11.41-9.22,20.96-7.17Z"/>
        <path class="cls-12" d="M502.92,359.66c-4.08,7.23-16.87,64.2-29.01,52.56-5.57-10.07-9.02,1.34-16.46,1.33-1.45.06-2.67-2.46-2.11-4.02,7.47-20.21,16.33-48.89,24.18-69.13,3.53-.89,5.07,1.26,7.05,4.32l8.24,5.48c2.49,3.56,4.08,7.71,8.1,9.46Z"/>
        <path class="cls-10" d="M547.41,128.91c5.26,1.07,9.78,2.56,12.34,7.7l5.63.16c0,4.86,1.59,4.35,5.31,4.09,11.44,19.71,8.44,19.03.68,41.84-14.75,1.26-6.44-10.76-12.71-8.1l.99-3.09c1.07-.03,1.01-1.12,0-1.02.09-.88-.97-.89-1.05-.03-4.01-.94-2.36,3.13-3.6,5.27l-1.82-.26c1.32-2.36-4.45-3.58-5.71-4.45,0,0-13.3,1.21-13.3,1.21,1.58-1.92,3.09-4.31,2.49-5.86-3.91-1.41-4.76,4.2-6.58,5.4-2.89,1.91-8.77-2.83-7.19-6.05,4.04-1.58,3.27.87,4.35-4.36,5.42-6.79-1.02-10.07.19-18.94,6.46-4.84,13.3-9.14,19.98-13.5Z"/>
        <path class="cls-12" d="M514.96,277.22v2.35c-6.39,2.64,11.14,10.54,12.12,16.12l-13.98,35.83-5.37-.22c-1.47-3.11-4.11-5-7.23-6.94,1.92-6.37-.58-12.07-6.16-14.73-.98-.47-1.58-3.76-2.88-3.03,1.77-8.6,7.49-26.01,10.67-34.27,6.75-3.26,8.26,3.83,12.82,4.88Z"/>
        <path class="cls-1" d="M583.56,120.61c.97,1.43,3.59,1.08,5.25.76,5.86-.59,5.14,3.77,4.48,8.03-6.61,4.73-11.01,23.95-14.36,31.15-1.16-7.83-8.24-19.7-8.25-19.7-3.71.27-5.31.74-5.31-4.09l-5.63-.16c-2.56-5.14-7.08-6.64-12.34-7.7l20.31-13.27c5.29-3.86,14.09-12.44,15.93-.44-.53,2.24-1.08,3.95-.1,5.41Z"/>
        <path class="cls-1" d="M513.1,331.52c-2.74,6.41-7.96,21.4-10.19,28.14-4.02-1.75-5.61-5.9-8.1-9.46l-8.24-5.48c-1.99-3.06-3.53-5.22-7.05-4.32,0,.02-.13-1.57.12-1.84,4.33-4.56,4.66-10.88,6.81-16.17,1.62-3.97,4.5-7.64,3.6-12.2l1.41-3.58c1.3-.73,1.9,2.56,2.88,3.03,5.57,2.66,8.08,8.36,6.16,14.73,3.12,1.94,5.76,3.83,7.23,6.94l5.37.22Z"/>
        <path class="cls-8" d="M571.36,182.7c-5.78,16.91-15.48,24.93-15.4,35.76.04,4.74-1.43,7.62-2.74,11.27-3.19-.76-3.44-4.65-10.05-6.54-.33-1.21-.1-2.97-1.48-3.81-.09-.13-.16-.62-.05-.84.82-.3.98-1.15.9-1.9,5.18-.11,12.83-15.23,10.64-20.34,3.58-2.65,4.8-6.26,3.53-10.44,2.88-4.32.1-7.28,1.93-11.27,6.25-2.66-2.01,9.38,12.71,8.1Z"/>
        <path class="cls-5" d="M543.18,223.19c6.6,1.89,6.86,5.78,10.05,6.54-2.56,7.91-9.45,24.99-12.76,32.76-5.86,1.83-8.14-5.56-9.96-9.85,1.76-5.08,9.75-23.84,10.35-28.83l2.31-.62Z"/>
        <path class="cls-7" d="M540.47,262.49l-13.39,33.2c-1.03-5.63-18.51-13.48-12.12-16.12,1.78,1.78,3.59.89,4.04-1.43,3.16-6.14,8.9-19.06,11.5-25.49,1.82,4.29,4.1,11.68,9.96,9.85Z"/>
        <path class="cls-7" d="M524.73,247.03c-3.06,8.98-6.88,21.36-9.76,30.19-4.56-1.05-6.06-8.14-12.82-4.88l12.94-36.86c2.29.35,2.39,2.86,3.27,4.13,2.12,3.08,5.28,4.46,6.37,7.43Z"/>
        <path class="cls-8" d="M553.16,175.47c-4.03,3.73-9.28,8.23-13.8,11.68-1.04-3.25-4.72-6.4-7.73-6.26l-13.9,10.49c-2.89-1.1-2.48-9.8-3.13-12.16-4.55-2.32-8.22-4.89-11.84-7.88-5.04-4.18-7.15-.44-9.47-.81-.3-.05-.14-.47.09-.79,7.69-7.55,25.52-20.93,34.04-27.32-1.21,8.88,5.23,12.16-.19,18.94-1.08,5.23-.33,2.77-4.35,4.36-1.58,3.21,4.31,7.96,7.19,6.05,1.81-1.2,2.67-6.82,6.58-5.4.6,1.56-.91,3.95-2.49,5.86l13.3-1.21c1.26.88,7.02,2.09,5.71,4.45Z"/>
        <path class="cls-8" d="M487.61,175.19c-.56,2.67-.56,3.28-3.61,2.99.55-1.68,1.9-2.74,3.61-2.99Z"/>
        <path class="cls-13" d="M559.64,170.49c.18,2.48-2.15,5.52-1.81,7.96l-1.23,1.07c.02-.76.49-1.8-.62-3.13-13.31,29.05-25.36,58.27-34.6,89.29,1.96-3.34,18.61-44.77,20.32-46.29-2.36,14.23-11.75,33.8-17.1,47.16,0,0-5.59,11.59-5.59,11.59-.45,2.3-2.28,3.23-4.04,1.43v-2.35c2.06-4.93,2.78-10.47,4.91-15.3,3.93-15.34,14.12-35.15,17.8-50.29,3.05-2.89,4.47-7.11,5.46-11.54.43-1.29,13.56-26.67,12.55-27.27,1.22-.21,5.13-.33,2.9-2.37.09-.86,1.14-.84,1.05.03Z"/>
        <path class="cls-11" d="M588.81,121.37c-1.66.32-4.28.67-5.25-.76,1.75-.65,3.75.14,5.25.76Z"/>
        <path class="cls-8" d="M558.58,170.46c2.24,2.04-1.68,2.16-2.9,2.37-.44-1.79,1.11-2.86,2.9-2.37Z"/>
        <path class="cls-8" d="M559.64,171.51v-1.02c1.01-.11,1.07.99,0,1.02Z"/>
        <path class="cls-11" d="M543.57,216.64c0-1.66.16-3.64,1.06-5.07,1.15-.88,1.3-3.7,1.89-4.98,2.35.65,1.88-1.73,2.04-3.03,2.36-4.33,4.44-8.39,4.02-13.01,3.1.92,2.34-6.45,3.06-8,.75-.82,1.04-1.91.94-3.01l1.23-1.07c1.15,2.18.13,4.8-1.1,7.42,1.26,4.17.04,7.79-3.53,10.44,1.93,6.13-4.62,17.49-9.62,20.34Z"/>
        <path class="cls-11" d="M543.18,223.19l-2.31.62.83-4.42c1.38.83,1.15,2.59,1.48,3.81Z"/>
        <path class="cls-13" d="M543.57,216.64c-.25.1-.71.07-1.02,0,0-.81.51-1.57,1.11-2.13l-.09,2.12Z"/>
        <path class="cls-11" d="M541.65,218.55c.2-.4.57-.76.89-1.06,0,.46-.49.87-.89,1.06Z"/>
        <g>
          <path class="cls-8" d="M373.86,123.77c6.89,32.78,19.08,72.78,26.68,105.83-.16,17.55,15.4.04,27.78-7.37,16.24-10.75,30.82-22.94,44.95-35.67-1.32,11.11,12.95,7.99,18.4,22.04-1.2.74-2.73,1.04-4.18,1.06-9.54-2.05-11.07,8.98-20.96,7.17-.22,3.13-.11,5.46,1.52,6.94-20.72,15.48-53.32,38.75-71.02,57.17-1.28,1.4-6.34,1.28-7.58-.19-4.13-7.02-.76-10.69-6.9-10.61-5.37-1.46-10.17,1.68-11-4.78-8.61-42.69-9.48-86.56-16.83-129.49,3.76-1.3,5.16,7.86,6.59,9.92.63,1.52,5.48,1.27,6.35-.07.31-3.21,3.78-5.95,4.91-8,.57-5-1.74-9.88-.48-14.16l1.79.22ZM388.2,246.45l-6.9-31.14c-2.55,6.71,3.07,25.87,3.37,33.07.13.82,3.62-.72,3.54-1.94Z"/>
          <path class="cls-10" d="M360.95,32.46c.94,7.72,2.99,22.95,4.11,30.28-12.09,22.3,2.62,24.23-7.7,28.52l-.98,4.2c-6.37,1.29-8.31-3.31-11.92-2.98-1.6-2.53-5.83-33.89-10.35-32.94-2.36.16-8.93,8.48-9.14,12.3-2.58-.65-7.22,5.57-7.29,6.81-2.99.6-5.58,3.48-7.42,6.06l-6.7,1.41c-5.57-5.69-12.53-10.91-10.58-20.09.35-1.96,1.33-3.63-.38-5,6.37-8.99,16.32-26.8,24.99-33.48,1.54,4.67,4.95,7.95,8.75,11.35l4.15,7.95c5.77,6.31,17.59,4.49,20.93-3.2,1.89-4.34,2.78-8.42,5.4-11.94,1.08-.38,3.13.51,4.12.75ZM317.77,51.94c3.49-1.4,4.21-4.31,4.46-6.93-2.86,1.85-4.46,3.83-4.46,6.93ZM316.1,52.53c-.02.59-.02,1.39,0,1.98.02-.59.02-1.39,0-1.98Z"/>
          <path class="cls-4" d="M76.15,16.6c.62.73.71,2.82-.69,3.21-3.56-5.26-.45-12.74-6.41-16.64-4.18-2.3-8.26,1.91-8.44,6.33,0,3.64-.02,16.63-.05,20.01-2.14,34.87-11.45,110.43-15.93,145.72-7.55,27.17-12.41,61.88-14.48,90.03.04,9.1-6.39,41.35,5.73,41.12,4.93-.97,4.26-11.56,4.85-16.9,2.36-25.9,7.43-54.27,10.88-79.82l2.15-1.08c-3.27,24.33-10.12,63.54-10.79,87.95.69-1.68.53-3.38,1.8-4.01.17,1.56.62,3.12.18,4.7-1.9-2.23-1.89,2.73-.15,2.45-.75,5.24,1.14,11.32,7.34,11.24,2.21-.08,5.12-2.3,5.65-5.33,0,0,6.86-38.69,6.86-38.69,6.92-48.13,9.09-101.06,14.44-149.33.49.03,1.43-.14,1.81-.21-.71,25.09-6.57,60.69-7.07,86.19-2.06,34.82-6.93,69.66-14.23,103.72-1.13,5.25-6.01,6.88-10.12,5.61-5.98-1.85-7.55-6.05-7.06-12.63-2.58,10.82-13.66,11.19-15.34-.38,0,0-.17-23.36-.17-23.36,4.05-67.6,22.75-133.44,27.41-201.02,1.93-21.79,4.65-45.95,4.51-67.89.73-7.51,11.6-8.88,14.58-2.13,0,0,2.72,11.13,2.72,11.13Z"/>
          <path class="cls-16" d="M214.89,211.58c-2.93,6.36-12.73,15.49-17.2,21.11-7.29,4.94-9.77-2.28-13.2-7l-11.66,12.19c-9.4,3.7-11.18-15.6-14.14-21.25,3.13.94,3.85,7.89,7.4,7.73,5.31.5,8.95-17.74,14.2-17.78-3.31-3.14-.25-7.04-.76-9.49l2.1-.59c.65.54,1.57,1.9,2.44,1.8,2.59-1.52,8.68-11.37,12.19-13.93-1.18,9.19,4.17,9.55,3.02,15.76-.43,2.33,1.66,5.84,2.18,8.31,4.52-.47,8.38,1.94,13.43,3.15Z"/>
          <path class="cls-3" d="M231.47,188.64c-.42,1.22-.7,3.5-2.04,4.68-3.43,3.11-4.99,7.29-8.17,10.7-.21.25.94.92,1.5.92-.45-.13-.8.17-1.02.4-2.67.16-3.02,3.84-6.86,6.24-5.05-1.21-8.92-3.62-13.43-3.15-.53-2.47-2.62-5.98-2.18-8.31,1.15-6.2-4.2-6.57-3.02-15.76,2.53-2.89,14.26-15.91,17.06-19.02,6.31,1.38,6.47.96,8.84,7.33,3.24,1.92,10.38,12.5,9.32,15.97Z"/>
          <path class="cls-5" d="M280.87,117.69l-15.3,20.69-7.66,10.66c-.73,1.01-.04,2.35,1.47,2.12l-.85.99c-2.53-1.76-4.47,4.3-5.7,5.5l-1.18.08c.72-2.23-2.45-3.51-3.02-4.92-1.95-4.77-3.96-7.33-8.73-8.76-1.34-.4-3.05-2.9-4.6-2.47,7.34-9.01,21.9-27.34,29.02-36.52,2.37.62,6.25-.1,7.81,1.88l8.74,10.75Z"/>
          <path class="cls-14" d="M310.26,84.73c-2.74,3.84-5.98,7.31-10.14,10.39-2.4,4.76-6.19,8.43-10.93,11.07-1.86,4.77-4.62,8.72-8.32,11.5l-8.74-10.75c-1.55-1.97-5.43-1.26-7.81-1.88,2.03-4.68,8.57-10.03,8.14-15.59,3.59-1.44,9.75-10.77,10.27-15.94,4.17-2.97,6.59-8.84,9.88-12.48,1.71,1.37.73,3.04.38,5-1.95,9.19,5,14.38,10.58,20.09l6.7-1.41Z"/>
          <path class="cls-10" d="M91.82,12.29c-2.02,5.21,2.78,10.71,7.83,11.24.18.53,1.06,1.25.88,2.05-.38.04-1.28.53-1.55,1.15-1.67,3.86-4.6,4.98-7.84,7.34-1.5,1.09-3.08,5.39-5.55,5.32-3.75-.11-4.74.5-6.96,3.28l-7.74,4.14c-13.51,7.56-4.31-9.24-10.7-12.26l.33-2.99c2.78.69,2.98-2.78.03-2.08l.03-4.92c5.55-.24,2.75-15.04,12.84-11.82.27,2.11.48,5.06,2.03,7.04,1.4-.39,1.31-2.47.69-3.21,5.19,2.02,4.19-7.43,10.89-7.41,2.24.13,3.38,1.3,4.78,3.11Z"/>
          <path class="cls-10" d="M99.02,68.88c4.5,9.23,8.37,18.48,14.07,27.28-3.92,4.58-4.54,7.41-12.62,6.25-4.36-7.48-12.19-28.7-15.13-22.23-2.04,5.03-5.56,29.58-4.45,37.15-14.63-.43-13.32-23.8-5.05-31.96-1.08-5.26,1.23-9.56,5.92-11.9,8.79,1.3,11.57-5.06,17.26-4.6Z"/>
          <path class="cls-4" d="M403.94,235.86c-.68-.34-1.5.14-1.5.97-9.66-38.77-22.64-85.19-30.91-123.41-5.08-34.11-7.85-74.28-17.06-107.75-9.04-8.8-17.89.19-24.35,7.32-2.05,2.41-12.07,11.4-12.51,14.58-13.16,11.06-22.2,32.79-33.93,45.08,10.06-21.03,25.78-40.25,41.38-57.73,8.68-8.32,17.93-22.02,30.52-10.47,2.22,1.62,1.72,5.56,2.14,7.81,1.87,7.73,5.07,14.4,5.46,22.37,5.6,46.89,15.32,113.62,30.19,157.91,2.27,9.1,8.72,34.34,10.58,43.33Z"/>
          <path class="cls-13" d="M344.47,92.5c3.21,13.13,7.41,26.01,9.06,39.91.08.65.9,1.35,1.16,1.45,6.73,43.65,8.41,88.1,16.84,131.48.83,6.44,5.62,3.35,11,4.78-4.58,5.26-13.31.8-13.42-6.23-3.46-22.2-9.71-62.45-11.15-84.49-1.2-36.41-14.93-82.03-22.92-117.73-4.1.38-5.34,5.36-9.94,9.45,1.25-4.77,9.88-17.47,12.15-8.15,0,0,7.21,29.52,7.21,29.52Z"/>
          <path class="cls-13" d="M100.47,102.42c7.98,13.91,24.49,41.79,32.91,55.26,6.97,10.24,10.16,22.76,16.04,33.89,5.13,12.09,10.81,32.8,16.75,44.33,1.31,2.12,5.01,3.7,6.66,1.97,0,0,11.66-12.19,11.66-12.19,3.44,4.73,5.91,11.94,13.2,7,4.5-5.65,14.23-14.71,17.2-21.11,3.84-2.4,4.19-6.07,6.86-6.24-6.64,9.98-13.96,19.75-22.85,28.42-6.32,6.59-12.1-.15-14.64-6.63-5.37,6.36-13,21.22-20.3,8.18-11.77-27.83-20.9-56.6-36.18-82.86-4.41-7.04-20.22-32.19-24.07-39-1.12-1.11-15.17-32.99-17.33-31.89l-1.03-1.37c2.94-6.48,10.76,14.75,15.13,22.23Z"/>
          <path class="cls-9" d="M181.62,196.5l-2.1.59c-9.35-19.4-24.41-48.62-33.11-68.32-11.33-29.75-24.72-60.25-38.04-89.13,0,0-5.52-10.24-5.52-10.24-.7-1.03,0-3.68-2.33-3.81-1.3-5.65-5.05-9.21-8.7-13.29-1.4-1.81-2.54-2.98-4.78-3.11-5.75-.33-6.09,7.91-9.23,7.58.71-4.73,3.74-9.41,8.29-9.47,7.27-.2,10.14,8.48,14.4,13.5,15.59,30.13,29.81,61.05,42.12,92.73,9.71,26.37,26.58,57.51,39.01,82.96Z"/>
          <path class="cls-16" d="M317.68,78.67c-.16,2.49-2.13,4.11-3.88,6.08-18.27,20.76-39.69,43.38-54.42,66.41-1.51.24-2.2-1.1-1.47-2.12l7.66-10.66,15.3-20.69c3.7-2.78,6.46-6.73,8.32-11.5,4.74-2.64,8.53-6.32,10.93-11.07,4.17-3.08,7.4-6.54,10.14-10.39,1.84-2.58,4.44-5.46,7.42-6.06Z"/>
          <path class="cls-4" d="M264.32,105.06c-10.83,13.72-26.05,33.61-37.81,46.45-6.78,6.91-20.01,21.23-26.4,28.51-2.89,3.7-6.62,6.54-9.55,10.55-2.78,3.34-5.71,9.63-7.9,6.96,29.12-35.39,65.04-69.41,89.8-108.07.43,5.56-6.11,10.91-8.14,15.59Z"/>
          <path class="cls-13" d="M258.53,152.15c-11.17,18.12-22.47,36.2-35.76,52.79-.57,0-1.71-.67-1.5-.92,3.18-3.41,4.73-7.59,8.17-10.7,1.34-1.18,1.62-3.45,2.04-4.68,1.96-.73,4.46-3.75,4.21-5.77,2.56.53,15.53-23.6,17.15-25.22,1.21-1.18,3.17-7.28,5.69-5.5Z"/>
          <path class="cls-4" d="M86.38,81.56c-.46,7.07-1.5,15.01-2.97,22.07-1.63,8.34-.05,14.14-2.7,12.78-.56-7.25,2.56-31.65,4.63-36.22l1.03,1.37Z"/>
          <path class="cls-4" d="M273.89,88.65c.25-4.26,6.29-11.47,8.84-15.12-.07,4.23-6.56,13.81-8.84,15.12Z"/>
          <path class="cls-13" d="M324.98,71.86c-1.77,2.65-4.02,6.07-7.29,6.81.08-1.24,4.72-7.46,7.29-6.81Z"/>
          <path class="cls-10" d="M370.52,107.81l1,5.61c-1.53,1.12-.71,2.65,1,2.2-.63,2.93.83,5.5,1.33,8.15l-1.79-.22c-1.26,4.28,1.05,9.16.48,14.16-1.12,2.05-4.6,4.79-4.91,8-.88,1.34-5.73,1.58-6.35.07-1.44-2.08-2.82-11.21-6.59-9.92.68-6.29.52-13.24,2.92-19.61,1.31-2.48,4.8-4.4,2.66-8.77,9.77-12.9,4.87-3.01,10.24.32Z"/>
          <path class="cls-15" d="M360.95,32.46c-.99-.24-3.03-1.13-4.12-.75-2.61,3.51-3.51,7.6-5.4,11.94-3.34,7.7-15.16,9.52-20.93,3.2l-4.15-7.95c-3.8-3.4-7.22-6.68-8.75-11.35.39-3.13,10.49-12.21,12.51-14.58,6.45-7.12,15.33-16.13,24.35-7.32.97,10.23,5.41,18.42,6.49,26.8Z"/>
          <path class="cls-8" d="M370.52,107.81c-5.35-3.27-.46-13.25-10.24-.32,2.14,4.37-1.35,6.3-2.66,8.77-2.45,5.63-1.75,12.14-2.94,17.61-.26-.1-1.09-.81-1.16-1.45-1.65-13.91-5.85-26.79-9.06-39.91,3.61-.33,5.55,4.26,11.92,2.98l.98-4.2c10.31-4.27-4.39-6.25,7.7-28.52l5.46,45.06Z"/>
          <path class="cls-2" d="M102.85,29.4c-.48,2.67-4.05,4.17-4.89,10.45-3.34.33-4.96,2.07-7.17,3.95-7.19,6.12.39,10.09-4.7,15.73,3.29,3.11,6.99,4.04,10.61,4.62l2.31,4.74c-5.68-.45-8.47,5.9-17.26,4.6-4.69,2.34-7,6.63-5.92,11.9-7.96,8.64-9.6,27.97,3.24,32.17-1.35,20.85-5.62,50.82-6.63,71.65-2.6.6-1.79,5.13-3.16,6.79-3.28,3.97-9,2.09-12.6.12-3.29-1.22-1.05,4.47-2.91,7.43-1.8-1.83-.84,1.45-1.31,1.97-1.11,2.12-1.17,7.65-1.89,10.12-1.84-.39-3.39,1.78-4.85,3.47-2.52-2.07-.52-5.47-1.3-7-2.43-4.73-2.48-8.12-1-12.93,1.88-44.43,14.26-120.29,16.75-164.64,3.89.92,1.9,9.56,2.9,12.41,2.42,5.07,12.17-3.19,15.54-4.3,2.22-2.78,3.22-3.39,6.96-3.28,2.46.07,4.04-4.23,5.55-5.32,3.24-2.36,6.17-3.48,7.84-7.34,2.69-3.27,3.43.96,3.88,2.66Z"/>
          <path class="cls-14" d="M45,253.5c-1.19,8.42-3.36,27.37-4.27,35.97-.59,5.34.08,15.93-4.85,16.89-14.12,2.3-3.41-55.87-3.53-65.7.95-.44,2.7.33,2.65,1.5-.2,4.37,2.2,5.49,5.59,7.69,1.18.76,1.81,4.26,4.42,3.64Z"/>
          <path class="cls-14" d="M64.65,266.89s-6.86,38.69-6.86,38.69c-.54,3.03-3.45,5.25-5.66,5.33-10.69-.38-6.16-12.67-7.48-19.38,1.33.45,2.1-.59,2.01-1.54-.45-4.08,1.75-6.96,2.05-11.43,1.45-6.33,2.53-15.26,3.64-21.14,7.81,4.64,4.5,12.68,12.29,9.46Z"/>
          <path class="cls-6" d="M50.59,215.65c-.76,11.38-4.03,26.33-5.59,37.85-2.61.62-3.25-2.88-4.42-3.64-3.39-2.2-5.79-3.32-5.59-7.69.05-1.17-1.69-1.94-2.65-1.5,2.63-17.16,6.9-48.79,12.28-65.45.35,6.04-1.24,17.31-1.19,23.98-1.47,4.81-1.43,8.2,1,12.93.78,1.52-1.21,4.92,1.3,7,1.46-1.69,3.01-3.86,4.85-3.47Z"/>
          <path class="cls-5" d="M68.05,241.48l-3.4,25.41c-7.79,3.22-4.48-4.83-12.29-9.46-.03-9.43,3.97-19.98,1.27-28.88,1.41-1.13,1.07-3.41.96-4.97.76-.54.9-1.54.1-2.07,0,0-.08-1.98-.08-1.98.9.09,1.76-.29,2.02-1.12,4.08.64,3.59,5.11,4.9,8.2,1.86,4.4,4.7,7.48,4.24,12.74-.08.9,1.46,2.08,2.29,2.15Z"/>
          <path class="cls-7" d="M72.46,189.21c-.74,12.93-2.82,39.56-4.4,52.27-.83-.07-2.36-1.25-2.29-2.15.46-5.26-2.37-8.33-4.24-12.74-1.31-3.09-.83-7.56-4.9-8.2l-.74-14.82c-.1-2.05,1.61-4.7.79-7.45,3.61,1.97,9.33,3.85,12.6-.12,1.37-1.66.56-6.19,3.16-6.79Z"/>
          <path class="cls-2" d="M73.43,12.76c-10.11-3.21-7.26,11.55-12.84,11.82l.02-15.09c2.33-12.16,13.05-6.66,12.82,3.28Z"/>
          <path class="cls-6" d="M53.79,207.54c-.24.25-.2.76-.04,1.03l-2.15,1.08c.22-1.29.08-3.3.87-4.13.76.4,1,1.34,1.32,2.02Z"/>
          <path class="cls-2" d="M60.52,31.58l.03-2.08c2.95-.7,2.74,2.77-.03,2.08Z"/>
          <path class="cls-13" d="M44.95,297.22c-.21.74-.29,1.66-.15,2.45-1.74.28-1.75-4.68.15-2.45Z"/>
          <path class="cls-3" d="M168.93,175.51l10.6,21.58c.52,2.44-2.54,6.35.76,9.49-5.21,0-8.96,18.36-14.2,17.78-3.55.16-4.27-6.79-7.4-7.73l-9.27-25.06c4.94-4.77,9.17-17.87,19.51-16.06Z"/>
          <path class="cls-1" d="M251.65,157.74c-2.13.19-7.97,10.61-12.48,17.45-1.81,2.75-3.93,4.21-3.49,7.69.25,2.02-2.25,5.04-4.21,5.77,1.06-3.46-6.05-14.02-9.32-15.97-2.37-6.39-2.54-5.95-8.84-7.33,5.47-5.63,17-17.86,21.98-23.76,1.56-.43,3.27,2.07,4.6,2.47,4.77,1.43,6.78,3.99,8.73,8.76.58,1.41,3.74,2.7,3.02,4.92Z"/>
          <path class="cls-16" d="M252.84,157.65c-1.73,1.76-14.49,25.62-17.15,25.22-.43-3.48,1.68-4.95,3.49-7.69,5.28-7.45,9.81-17.99,13.66-17.53Z"/>
          <path class="cls-2" d="M99.64,23.53c-5.05-.53-9.85-6.04-7.83-11.24,2.92,3.77,6.75,6.12,7.83,11.24Z"/>
          <path class="cls-1" d="M139.81,112.39c-6.8-1.12-11.02,3.88-13.87,9.6-1.98,3.96-6.04,6.56-7.75,10.81l-17.73-30.38c8.08,1.16,8.69-1.68,12.62-6.25,2.03,3.12,3.13,6.48,6.35,8.6.12-5.06-2.02-10.76-3.23-15.46,6.51-4.78,6.11-6.51,8.74-13.06,4.08,8.83,11.51,27,14.87,36.16Z"/>
          <path class="cls-13" d="M104.36,64.12c4.34,9.89,15.56,29.52,15.08,40.65-4.73-2.21-32.28-54.99-26.86-56.74,3.76-2.96,7.82,7.69,11.77,16.09ZM99.54,59.08c-1.47-3.54-2.81-7.07-6.33-9.51,5.98,16.48,13.26,33.02,23.29,48.4-3.82-14.11-11.39-25.46-16.96-38.89Z"/>
          <path class="cls-8" d="M372.53,115.62c-1.72.45-2.53-1.08-1-2.2,1.03.08,1.17,1.44,1,2.2Z"/>
          <path class="cls-3" d="M139.81,112.39c3.02,7.88,9.64,23.51,13.29,31.09-6.35,7.39-11.12,17.59-19.72,14.2l-15.19-24.88c1.71-4.25,5.77-6.85,7.75-10.81,2.85-5.72,7.07-10.72,13.87-9.6Z"/>
          <path class="cls-1" d="M168.93,175.51c-10.35-1.81-14.55,11.27-19.51,16.06-5.88-11.13-9.07-23.65-16.04-33.89,8.6,3.39,13.36-6.81,19.72-14.2l15.83,32.03Z"/>
          <path class="cls-1" d="M115.72,56.41c-4.62-.87-8.2,2.83-11.36,7.71-8.09-22.34-18.76-21.79-7.65.02-3.62-.57-7.32-1.51-10.61-4.62,5.09-5.64-2.49-9.61,4.7-15.73,2.21-1.88,3.83-3.62,7.17-3.95.84-6.28,4.41-7.77,4.89-10.45,4.96,8.02,9.09,18.83,12.86,27.01Z"/>
          <path class="cls-3" d="M115.72,56.41c3.59,6.43,6.32,13.17,9.23,19.83-2.63,6.55-2.23,8.29-8.74,13.06l-11.85-25.18c3.16-4.88,6.74-8.58,11.36-7.71Z"/>
          <path class="cls-10" d="M56.69,196.12c.82,2.76-.9,5.4-.79,7.45-2.5,2.95-2.42,2.2-2.11-.02,1.86-2.97-.39-8.66,2.91-7.43Z"/>
          <path class="cls-9" d="M53.78,203.56c-.31,2.22-.39,2.97,2.11.02l.74,14.82c-.26.83-1.12,1.22-2.02,1.12-.21-4.6,1.38-10.3-2.14-13.99.46-.52-.49-3.8,1.31-1.97Z"/>
          <path class="cls-13" d="M52.36,257.43c-1.76,8.87-2.75,21.03-5.77,29.8l-1.09-.03c1.25-5.47,6.35-46.18,7.25-52.73.17-1.33-.92-3.49,1.13-3.92,2.53,7.96-1.9,18.35-1.52,26.89Z"/>
          <path class="cls-4" d="M46.59,287.22c-.46,1.29,1.14,5.04-1.93,4.31-.89-1.6.67-3.21.84-4.34l1.09.03Z"/>
          <path class="cls-13" d="M53.63,228.55l-.05-5.03,1.01.06c.11,1.56.44,3.85-.96,4.97Z"/>
          <path class="cls-9" d="M54.59,223.57l-1.01-.06c0-.87.15-1.73,1.11-2.01.8.53.66,1.54-.1,2.07Z"/>
        </g>
        <path class="cls-13" d="M546.52,206.58c1.57-5.24,3.05-11.62,6.1-15.05.14,4.2-1.9,8.01-4.05,12.02-.16,1.29.3,3.68-2.04,3.03Z"/>
        <path class="cls-13" d="M552.59,190.54c-.09-2.83,1.39-5.72,3.06-8-.72,1.58.04,8.91-3.06,8Z"/>
        <path class="cls-13" d="M544.63,211.57c-.05-.83.29-1.65,1.02-2.06-.23.78-.29,1.63-1.02,2.06Z"/>
      </g>
      <g>
        <path class="cls-9" d="M457.63,450.11c7.82,2.56,20.3,11.16,11.3,18.91-1.16,12.42-4.13,23.74-8.67,35.36l6.2,9.73c-1.27,5.19-7.44,10.07-14.22,8.55-124.02-25.95-280.42-67.43-402.51-99.38,0,0-39.96-9.94-39.96-9.94-10.98-1.88-14.5-17.93-1.09-18.58,4.15-13.2,2.45-28.27,9.07-40.81-10.26-8.63,4.62-17.66,13.32-13.06,20.61,5,52.08,13.3,72.64,18.44,56.92,16.04,131.26,30.95,188.52,45.47,50.76,12.91,115.08,30.21,165.4,45.3ZM309.88,411.31c-91.95-21.98-191.83-45.47-283.19-69.14-4.01-.99-11.03,2.44-9.4,6.36,2.1,5.05,2.93,7.11.57,12.32-2.79,6.15-3.19,17.16-4.79,26.89-.82,4.98-1.96,8.53-7.7,9.77-11.62,10.47,11.8,16.19,23.64,18.7,125.4,30.29,276.16,74.22,402.83,100.18,11.01,2.86,34.87,8.39,30.56-5.44-3.7-3.61-4.75-7.58-2.77-12.38,3.87-9.34,5.68-18.95,7.05-29.01.31-2.26,2.26-4.03,3.38-6.31-11.85-17.22-36.38-17.05-54.83-23.36-28.63-7.43-76.45-21.12-105.34-28.58Z"/>
        <path class="cls-12" d="M266.71,400.71c1.14,7.1-8.23,6.35-7.79,11.84-9.79-1.78-19.67-5.88-30.15-5.9-.54-.87-1.38-.93-2.1-.21-1.72-.65-3.73-1.58-6.15-.43,2.26.75,4.41,1.67,5.82,3.3,1.31-.47,2.4-1.64,3.3.39,41.6,14.71,84.95,27.78,128.72,34.48.21-1.3,2.51-.48,3.32-.66.6,3.44,4.3,1.97,5.03-1.54-19.95-5.44-41.15-12.99-60.96-17.62l-.91-10.91c2.87.2,5.08,1.08,5.05-2.14,29.02,7.49,76.61,21.12,105.34,28.58,18.46,6.31,42.98,6.13,54.83,23.35-1.12,2.28-3.08,4.05-3.38,6.31-1.37,10.06-3.18,19.67-7.05,29.01-5.03,8.98,8.21,12.6,1.72,18.98-7.38,5.05-17.68,1.35-29.51-1.16-109.52-21.95-249.97-62.43-358.31-88.94,0,0-44.52-11.24-44.52-11.24-11.1-2.8-25.62-5.25-26.63-13.21-.44-8.63,10.11-3.15,10.69-15.26,1.61-9.73,2-20.73,4.79-26.89,2.36-5.21,1.53-7.27-.57-12.32-1.63-3.92,5.39-7.34,9.4-6.35,0,0,53,13.09,53,13.09,57.37,15.81,128.49,31.79,187.02,45.44ZM95.93,415.38c-8.66-3.87-17.66-7.06-27.68-6.63,8.98,3.16,17.72,6.05,27.68,6.63ZM400.53,479.77c-3.38-3.23-7.37-4.26-11.28-3.69,3.94,2.3,7.25,3.22,11.28,3.69Z"/>
        <path class="cls-7" d="M309.88,411.31c.03,3.22-2.18,2.34-5.05,2.14l.91,10.91c-15.58-4.1-31.02-8.58-46.83-11.82-.44-5.49,8.94-4.74,7.79-11.84l43.17,10.61Z"/>
        <path class="cls-13" d="M258.91,412.55c34.26,7.89,68.26,17,101.89,28.02.24.86.68,1.87.86,2.95l-2.33-.05c-36.87-16.26-82.04-23.49-122.7-34.23.97,2.17,3.83,2.06,5.18,2.95-2.01,2.04-10.05-2.15-12.18-2.49,1.54.17,3.33.11,4.05-2.39-1.9.36-3.24.2-3.68-.82,10.16.92,19.45,4.11,28.91,6.05Z"/>
        <path class="cls-4" d="M241.81,412.19c37.03,12.68,76.1,23.13,115.06,30.03.8.1,1.51.97,1.48,1.95-40.43-6.37-81.03-17.61-119.45-31.38.96-.06,2.03.13,2.91-.6Z"/>
        <path class="cls-10" d="M400.53,479.77c-4.02-.47-7.34-1.39-11.28-3.69,3.91-.57,7.9.46,11.28,3.69Z"/>
        <path class="cls-10" d="M226.66,406.44c.87.17,2.49.15,3.34.06.44,1.02,1.78,1.17,3.68.82-.72,2.5-2.52,2.56-4.05,2.39-.25-.76-1.31-1.66-2.23-.93l-1.88-.28c-1.01-1.11-3.38-1.86-5-2.49,2.42-1.16,4.43-.22,6.15.43Z"/>
        <path class="cls-4" d="M361.67,443.52c-.18-1.08-.62-2.09-.86-2.95l5.89,1.42c-.73,3.5-4.43,4.98-5.03,1.54Z"/>
        <path class="cls-13" d="M227.4,408.78c-.85.91-1.44.46-1.88-.28l1.88.28Z"/>
        <path class="cls-13" d="M228.77,406.65l-2.1-.21c.73-.72,1.56-.66,2.1.21Z"/>
      </g>
    </g>
  </g>
</svg>